<svg width="24" height="24" viewBox="0 0 24 24" fill="none" xmlns="http://www.w3.org/2000/svg">
<path d="M10 21H5C4.45 21 3.97933 20.8043 3.588 20.413C3.19667 20.0217 3.00067 19.5507 3 19V5C3 4.45 3.196 3.97934 3.588 3.588C3.98 3.19667 4.45067 3.00067 5 3H10V2C10 1.71667 10.096 1.47934 10.288 1.288C10.48 1.09667 10.7173 1.00067 11 1C11.2827 0.999337 11.5203 1.09534 11.713 1.288C11.9057 1.48067 12.0013 1.718 12 2V22C12 22.2833 11.904 22.521 11.712 22.713C11.52 22.905 11.2827 23.0007 11 23C10.7173 22.9993 10.48 22.9033 10.288 22.712C10.096 22.5207 10 22.2833 10 22V21ZM5 18H10V12L5 18ZM14 21V12L19 18V5H14V3H19C19.55 3 20.021 3.196 20.413 3.588C20.805 3.98 21.0007 4.45067 21 5V19C21 19.55 20.8043 20.021 20.413 20.413C20.0217 20.805 19.5507 21.0007 19 21H14Z" fill="white"/>
</svg>
